<svg width="24" height="24" viewBox="0 0 24 24" fill="none" xmlns="http://www.w3.org/2000/svg">
<g clip-path="url(#clip0_61385:218)">
<path d="M10.724 23.9999C9.617 23.9999 8.324 23.9939 7.048 23.9209C5.18106 23.9629 3.3729 23.2669 2.016 21.9839C0.732801 20.6275 0.0367146 18.8196 0.079 16.9529C0 15.5099 0 14.0509 0 12.6399C0 12.4265 0 12.2132 0 11.9999C0 11.7865 0 11.5732 0 11.3599C0 9.94888 0 8.48988 0.079 7.04788C0.0369932 5.18094 0.733022 3.37278 2.016 2.01588C3.3729 0.7329 5.18106 0.0368711 7.048 0.0788779C8.328 0.00587794 9.617 -0.00012207 10.724 -0.00012207H13.277C14.384 -0.00012207 15.677 0.00587794 16.954 0.0788779C18.8207 0.0365925 20.6286 0.732679 21.985 2.01588C23.268 3.37278 23.964 5.18094 23.922 7.04788C24 8.48988 24 9.94888 24 11.3609C24 11.5742 24 11.7875 24 12.0009C24 12.2142 24 12.4272 24 12.6399C24 14.0509 24 15.5099 23.921 16.9539C23.9633 18.8206 23.2672 20.6285 21.984 21.9849C20.6276 23.2681 18.8197 23.9642 16.953 23.9219C15.672 23.9949 14.383 24.0009 13.276 24.0009L10.724 23.9999Z" fill="white"/>
<path d="M17.6061 6.7885C17.8426 6.94651 18.1206 7.03085 18.405 7.03085L18.406 7.03185C18.7873 7.03132 19.1528 6.87948 19.4223 6.60967C19.6917 6.33986 19.843 5.97415 19.843 5.59285C19.843 5.30844 19.7587 5.03042 19.6007 4.79394C19.4427 4.55746 19.2181 4.37315 18.9553 4.26431C18.6926 4.15547 18.4034 4.12699 18.1245 4.18248C17.8456 4.23796 17.5893 4.37492 17.3882 4.57603C17.1871 4.77714 17.0502 5.03336 16.9947 5.31231C16.9392 5.59125 16.9677 5.88039 17.0765 6.14315C17.1853 6.40591 17.3697 6.63049 17.6061 6.7885Z" fill="#323238"/>
<path fill-rule="evenodd" clip-rule="evenodd" d="M12.0003 18.1555C10.7828 18.1553 9.59274 17.7941 8.58052 17.1176C7.5683 16.441 6.77943 15.4795 6.31365 14.3546C5.84787 13.2298 5.7261 11.992 5.96375 10.798C6.20139 9.60387 6.78777 8.50707 7.64874 7.64624C8.50972 6.7854 9.60661 6.1992 10.8007 5.96175C11.9949 5.7243 13.2326 5.84627 14.3574 6.31223C15.4822 6.77819 16.4436 7.56723 17.1199 8.57955C17.7963 9.59188 18.1573 10.782 18.1573 11.9995C18.1558 13.632 17.5066 15.1971 16.3522 16.3514C15.1979 17.5058 13.6328 18.154 12.0003 18.1555ZM12.0003 8.00006C11.2092 8.00006 10.4358 8.23466 9.778 8.67418C9.12021 9.11371 8.60752 9.73842 8.30477 10.4693C8.00202 11.2002 7.9228 12.0045 8.07714 12.7804C8.23148 13.5563 8.61245 14.2691 9.17186 14.8285C9.73127 15.3879 10.444 15.7689 11.2199 15.9232C11.9958 16.0775 12.8001 15.9983 13.531 15.6956C14.2619 15.3928 14.8866 14.8801 15.3262 14.2223C15.7657 13.5645 16.0003 12.7912 16.0003 12.0001C16.0003 10.9392 15.5789 9.92178 14.8287 9.17163C14.0786 8.42149 13.0612 8.00006 12.0003 8.00006Z" fill="#323238"/>
</g>
<defs>
<clipPath id="clip0_61385:218">
<rect width="24" height="24" fill="white" transform="translate(0 -0.00012207)"/>
</clipPath>
</defs>
</svg>
