<svg width="25" height="20" viewBox="0 0 25 20" fill="none" xmlns="http://www.w3.org/2000/svg">
<g clip-path="url(#clip0_61385:214)">
<path d="M24.5252 4.81079C24.5698 3.78241 24.219 2.77772 23.5499 2.01716C22.8809 1.25661 21.9481 0.802311 20.9564 0.753959C18.2851 0.624155 15.5608 0.571136 12.7784 0.571136H11.9108C9.1337 0.571136 6.40417 0.621412 3.73282 0.753959C2.74085 0.805585 1.80896 1.26243 1.14098 2.02456C0.473005 2.78669 0.123309 3.79209 0.16838 4.82084C0.0484782 6.60427 -0.00530135 8.38039 -1.15567e-05 10.1611C0.00527824 11.9418 0.0484782 13.7206 0.163972 15.5059C0.116952 16.5362 0.465529 17.5438 1.1334 18.3083C1.80128 19.0727 2.73405 19.5317 3.72753 19.5847C6.53377 19.7199 9.41318 19.7794 12.3402 19.7748C15.2719 19.7845 18.1428 19.7212 20.9529 19.5847C21.9464 19.5326 22.8796 19.0746 23.5483 18.3109C24.2169 17.5471 24.5666 16.5399 24.5208 15.5095C24.6363 13.7243 24.6892 11.9445 24.6848 10.1602C24.6942 8.37704 24.641 6.59391 24.5252 4.81079ZM9.97831 15.0653V5.24133L16.9705 10.151L9.97831 15.0653Z" fill="white"/>
</g>
<defs>
<clipPath id="clip0_61385:214">
<rect width="24.6857" height="19.2" fill="white" transform="translate(0 0.571136)"/>
</clipPath>
</defs>
</svg>
